<?xml version="1.0" encoding="UTF-8"?> <svg xmlns="http://www.w3.org/2000/svg" viewBox="0 0 540 360"><path d="m429.5 68.9c-15.2-8.1-31.8-14.9-49.4-21.6-39-14.9-81.3-28.6-125.4-32.8-11.1-1.1-22.4-1.4-33.6-.6-83.9 6.3-182.9 122.2-182.2 172.5s37.6 124.4 153.2 150.6c115.6 26.1 215.4-3.2 268.8-60.9 46.6-50.3 56.9-126.9 7.8-178.3-11.2-11.8-24.5-21-39.2-28.9z" fill="#c4f2d3"></path><path d="m431.4 179.8c-12.9-12-23.4-25.5-30-41.2-.8-1.1-3.3-1.1-4.1 0-5.9 13.1-16.4 26.9-30 41.2-.7.9.4 2 2.1 2h9.7c1.2 0 2.3.6 2.3 1.4 4.2 13.1 3.4 28.2 0 44.3 0 .8 1 1.4 2.3 1.4h31.4c1.2 0 2.3-.6 2.3-1.4-2.3-14.4-2.9-29.1 0-44.3 0-.8 1-1.4 2.3-1.4h9.7c1.6 0 2.7-1.1 2-2z"></path><path d="m431.3 179.8c-12.5-11.7-24-25-30.7-41 0 0 .1.2.1.2-.2-.2-.8-.5-1.3-.5-.6 0-1.2.2-1.3.5-6.7 14.8-19 28.7-30.5 40.9-.6 1.1 1.3 1.6 2.3 1.5h4.1 4.1c.7 0 1.5-.1 2.1.1.8.2 1.6.7 1.7 1.7v-.1c4.8 14.4 3.6 30 .5 44.6v-.2c.2.2.8.5 1.3.5 9.2-.1 20.5-.1 29.7-.1h1.2c.5 0 1.3 0 1.7-.3.2-.1.2-.2.2-.1v.2c-2.5-14.6-2.4-30.2.7-44.5.2-1.7 2.4-1.7 3.7-1.6 0 0 4.1.1 4.1.1h4.1c.9.1 3-.5 2.2-1.9zm.2-.1c1 1.6-1.4 2.4-2.6 2.2h-4.1s-4.1.1-4.1.1c-1.1 0-3-.1-3.1 1.2-2.5 14.6-1.7 29.6.7 44.2.1 1.6-1.3 2.3-2.5 2.5-.7.1-1.8.1-2.5.1h-4.7c-7.2 0-17.3 0-24.5-.1-1.6.1-3.9-.6-3.8-2.6 1.6-7.2 2.8-14.6 3-22 .3-7.4-.4-15-2.5-22.1-.1-1.1-2.1-1.1-3-1.1h-4.1-4.1c-1.3.2-3.9-.8-2.8-2.5 11.5-12.4 22.3-26 29.4-41.4.3-.6.9-.9 1.4-1.1 1.5-.5 3.3-.3 4.3 1 1.6 3.9 3.5 7.8 5.6 11.6 6.5 11.2 14.6 21.3 24 30z"></path><path d="m174.4 185.7c-11.5 11.2-21.6 25.7-30.8 42.4-.8 1.1-3.4 1.1-4.2 0-5.7-14.8-16.6-28.9-30.8-42.4-.7-1 .4-2.1 2.1-2.1h10c1.3 0 2.3-.7 2.3-1.5 2.6-15.3 2.7-30.5 0-45.6 0-.8 1-1.5 2.3-1.5h32.3c1.3 0 2.3.7 2.3 1.5-2.1 17.3-2.8 33.2 0 45.6 0 .8 1 1.5 2.3 1.5h10c1.8 0 2.9 1.1 2.2 2.1z"></path><path d="m174.5 185.7c-9.4 9.2-17 20.1-23.6 31.4-2.2 3.8-4.4 7.6-6.5 11.4-.4.6-.9.9-1.4 1.1-1.5.5-3.3.3-4.4-1.1-1.5-4.1-3.5-8.1-5.6-11.9-6.5-11.5-15.1-21.6-24.6-30.7-1.1-1.8 1.5-2.8 2.9-2.6h4.2s4.2 0 4.2 0c1 0 3 .1 3.1-1.2 2.4-15 2.2-30.4-.5-45.3-.1-.9.5-1.6 1-1.9 1.2-.9 2.7-.6 4.1-.7h4.8c4.8 0 14.4-.1 19.2 0h4.8c.7 0 1.8-.1 2.6.1 1.2.2 2.6 1 2.6 2.5-1.7 15.1-3.5 30.4-.7 45.5.2 1.3 2.1 1.3 3.2 1.3 0 0 4.2.1 4.2.1s4.2 0 4.2 0c.8-.4 3.2.4 2.2 2zm-.1-.1c.8-1.5-1.4-2-2.5-1.9h-4.2l-4.2.1c-1.3.1-3.5.1-3.7-1.7-3.4-14.7-2.5-30.6-.7-45.7v.1c0 .1 0 0-.2-.1-.7-.5-2.1-.2-2.9-.3-9.3 0-20.7 0-30-.1-.6 0-1.6 0-2 .5v-.2c1.3 7.6 1.9 15.3 1.8 23-.1 7.6-1 15.6-2.3 22.8-.2 1.9-2.5 1.9-3.9 1.8h-4.2s-4.2 0-4.2 0c-1-.1-3 .3-2.4 1.6 12.5 12 25 25.7 31.4 42.3 0 0-.1-.2-.1-.2.2.3.8.5 1.4.5s1.2-.2 1.4-.5c8.2-14.9 19-29.8 31.5-42z"></path><path d="m286.2 137.2-.3 1.1-1 3.7-1.7 6.2-.6 2.3-.2.7-.2.8-.2.7-5.1 18.8-.1.2-3.4 12.6-4 14.7-1.5 5.6-.2.6-.3 1.1-.2.6-1.1 4.2-.9 3.5c-.6.2-1.2.5-1.8.7-.2.1-.4.2-.7.2-.6.2-1.3.4-1.9.6-1.7.5-3.4.8-5.1 1-3.6.5-7.3.4-11.2-.2-25.9-4.2-46.3-36.1-45.7-63.5s17.7-47.6 39.7-48.9c2.3-.1 5.6.1 8.6.4 11 1.4 11.1 4.8 26.4 10 0 0 9.7 3.3 10.9 7.3.1.2.3 1.1 1 1.9.7.7 1 .6 1.4 1.2.4.8-.1 1.3 0 2.9.1 1.1.5 2 .3 2-.1 0-.3-.4-.5-.4-.2.1.1 1.5.2 2 .3 1.4.3 3.1-.6 5.4z" fill="#fff"></path><path d="m286.3 137.3c-5.1 18.6-10 39.6-15 58.3-1.7 6.6-3.6 13.2-5.4 19.8-1.6.6-3.2 1.2-4.8 1.6 0 0 .6-.8.6-.8v.6c-5.1 1.4-10.4 1.7-15.6 1-29-4.3-49.8-39.7-47.9-67.5 1.2-26 20.6-50.5 48.6-46.2 5 .5 9.9 2.4 14.2 4.9 4.3 2.4 8.8 4.3 13.5 6 2.3.9 4.6 2 6.7 3.4 1 .7 2 1.5 2.8 2.5 1 1.2.9 3 2.3 3.8.3.1.6.4.7.7.3.6 0 1.3 0 1.9-.1.6 0 1.2.1 1.8 0 0 .2.9.2.9v.3s0 .2-.2.2-.2-.2-.3-.3c0-.1-.1-.1-.1-.1.1-.1 0 0 0 .1v.7c.7 2.1.5 4.4-.4 6.4zm-.2-.1c.8-2 1-4.2.5-6.3 0-.4-.2-.9.2-1 .2.1.2.1.3.2s.1.1.1.2c0 0 .1 0 0 0s-.1.1-.1 0c-.2-1-.5-2-.4-3 0-.6.3-1.3 0-1.7-.3-.5-1-.7-1.4-1.2-.9-.9-1-2.3-1.8-3.2s-1.8-1.6-2.8-2.3c-2.1-1.3-4.3-2.3-6.6-3.1-4.7-1.5-9.4-3.3-13.8-5.5-6.4-3.6-13.7-4.9-21-4.7-23.3 1-38.1 23.1-39.4 44.8-2.3 27.6 16.9 62.7 46.3 66.3 4.8.5 9.8.1 14.4-1.2l-.6.8v-.6c1.6-.5 3.3-1 4.8-1.7 0 0-.5.6-.5.6 1.7-6.5 3.4-12.9 5.2-19.4 5.3-18.7 11.6-39.4 16.6-58z"></path><path d="m288.4 123.2c-.4-.5-.8-1.1-1.3-1.6-1.7-2.1-3.5-4-5.5-5.8-7.1-6.6-15.6-11.1-24.8-12.6-6.4-1-12.6-.5-18.2 1.4-17.1 5.7-30 20.3-30 47s19.7 59.4 45.7 63.5l2.1.3c1.6.2 3.1.2 4.7.2.6 0 1.2 0 1.8-.1h.6c.5 0 1.1-.1 1.6-.2l.2-.7.9-3.5 1.1-4.2.2-.6c-.6.1-1.1.3-1.7.4-1 .2-2 .3-3.1.4-1.2.1-2.5.1-3.7.1-1.5 0-3-.2-4.6-.4-10.7-1.7-20.7-8.3-28-18.5s-11.3-22.9-11-35.7c.3-11 3.6-20.9 9.4-28.4 1-1.2 2-2.4 3.1-3.5 7.8-7.8 20.8-11.6 28.7-9.4s10.3 2.9 15 5.9c2.9 1.9 5.7 4.2 8.3 6.9 1.6 1.7 3.1 3.5 4.6 5.5.1.1.1.2.2.2.5.7.9 1.3 1.4 2 .4.6.8 1.2 1.1 1.8l2.4-8.9c-.4-.5-.8-1-1.2-1.5zm-23.3 44.3c-.2-.3-.4-.6-.6-.9-1.1-1.5-2.9-2.4-5.5-2.8l-1.6-.3-4.4-.7-2.7-.4-.3 13.1 2.7.4 4.4.7 1.1.2c2.8.4 4.8.2 6-.8.3-.2.5-.5.7-.8.7-.9 1.1-2.2 1.1-3.9.1-1.4-.2-2.7-.9-3.8zm-.5-22.3c-.6-1.1-1.3-1.8-2-2.2-.8-.4-2.2-.7-4.5-1.1h-.2l-2.9-.5-4.2-.7-.3 11.9 2.7.4 4.4.7 1 .2c3 .5 4.9.1 5.6-1.2.8-1.3 1.2-2.5 1.2-3.8.1-1.4-.1-2.6-.8-3.7zm.5 22.3c-.2-.3-.4-.6-.6-.9-1.1-1.5-2.9-2.4-5.5-2.8l-1.6-.3-4.4-.7-2.7-.4-.3 13.1 2.7.4 4.4.7 1.1.2c2.8.4 4.8.2 6-.8.3-.2.5-.5.7-.8.7-.9 1.1-2.2 1.1-3.9.1-1.4-.2-2.7-.9-3.8zm-.5-22.3c-.6-1.1-1.3-1.8-2-2.2-.8-.4-2.2-.7-4.5-1.1h-.2l-2.9-.5-4.2-.7-.3 11.9 2.7.4 4.4.7 1 .2c3 .5 4.9.1 5.6-1.2.8-1.3 1.2-2.5 1.2-3.8.1-1.4-.1-2.6-.8-3.7zm.5 22.3c-.2-.3-.4-.6-.6-.9-1.1-1.5-2.9-2.4-5.5-2.8l-1.6-.3-4.4-.7-2.7-.4-.3 13.1 2.7.4 4.4.7 1.1.2c2.8.4 4.8.2 6-.8.3-.2.5-.5.7-.8.7-.9 1.1-2.2 1.1-3.9.1-1.4-.2-2.7-.9-3.8zm-.5-22.3c-.6-1.1-1.3-1.8-2-2.2-.8-.4-2.2-.7-4.5-1.1h-.2l-2.9-.5-4.2-.7-.3 11.9 2.7.4 4.4.7 1 .2c3 .5 4.9.1 5.6-1.2.8-1.3 1.2-2.5 1.2-3.8.1-1.4-.1-2.6-.8-3.7zm.5 22.3c-.2-.3-.4-.6-.6-.9-1.1-1.5-2.9-2.4-5.5-2.8l-1.6-.3-4.4-.7-2.7-.4-.3 13.1 2.7.4 4.4.7 1.1.2c2.8.4 4.8.2 6-.8.3-.2.5-.5.7-.8.7-.9 1.1-2.2 1.1-3.9.1-1.4-.2-2.7-.9-3.8zm-.5-22.3c-.6-1.1-1.3-1.8-2-2.2-.8-.4-2.2-.7-4.5-1.1h-.2l-2.9-.5-4.2-.7-.3 11.9 2.7.4 4.4.7 1 .2c3 .5 4.9.1 5.6-1.2.8-1.3 1.2-2.5 1.2-3.8.1-1.4-.1-2.6-.8-3.7zm0 0c-.6-1.1-1.3-1.8-2-2.2-.8-.4-2.2-.7-4.5-1.1h-.2l-2.9-.5-4.2-.7-.3 11.9 2.7.4 4.4.7 1 .2c3 .5 4.9.1 5.6-1.2.8-1.3 1.2-2.5 1.2-3.8.1-1.4-.1-2.6-.8-3.7zm.5 22.3c-.2-.3-.4-.6-.6-.9-1.1-1.5-2.9-2.4-5.5-2.8l-1.6-.3-4.4-.7-2.7-.4-.3 13.1 2.7.4 4.4.7 1.1.2c2.8.4 4.8.2 6-.8.3-.2.5-.5.7-.8.7-.9 1.1-2.2 1.1-3.9.1-1.4-.2-2.7-.9-3.8z" fill="#fff"></path><path d="m288.4 123.3c-17.3-22.7-47.7-28-67.8-5.9-17 20.8-13.2 52.1.9 73.5 8.2 12.7 21.4 23.6 37 24.2 2.2.1 4.4 0 6.5-.3 0 0-.5.4-.5.4s2.3-9 2.3-9 .8.8.8.8c-4.8 1.2-9.8 1.3-14.7.3-34.9-7.5-50.1-56.2-28.8-83.8 6.4-8.3 18.3-14.3 29.3-13.4 4.7.7 9.2 2.3 13.6 4.1 8.5 4.2 15.3 11.3 20.1 19.3h-.3s2.5-8.9 2.5-8.9v.1c.2.1-.9-1.4-.9-1.4zm.1-.2s1.2 1.6 1.2 1.6-2.4 9-2.4 9-.1.4-.1.4-.2-.3-.2-.3c-3.3-5.3-7.4-10.1-12.3-13.9-4.9-4-10.7-6.1-16.8-7.5-1.5-.4-2.9-.8-4.5-.8-10.6-.4-21.8 5.4-27.7 13.4-17.3 23-9.1 59.9 14.5 75.5 7.9 5.2 17.8 7.5 27.1 5.4 0 0 1.1-.2 1.1-.2s-.3 1-.3 1l-2.5 8.9-.1.4h-.4c-1.1.1-2.2.2-3.3.2-26.8.4-45.4-25.4-51.8-49-4.3-17-2.7-37.2 9.2-50.9 20.7-22.6 52.1-16.3 69.3 6.8z"></path><path d="m265 167.5c-1.3-2.6-4.2-3-6.8-3.1-2.7-.2-5.4-.8-8-1.5 0 0 .7-.6.7-.6-.6 4.4-.4 8.7-.1 13.1 0 0-.6-.8-.6-.8 2.9.3 5.9.7 8.8 1.1 1.6.2 3.6.3 4.9-.7 2-1.6 2.4-5.1 1.1-7.5zm.2-.1c1.7 3 2.2 8.3-1.6 10.1-2.5 1.1-5.3.4-7.8-.1-1.9-.4-3.9-.7-5.8-1.2 0 0-.7-.2-.7-.2s.1-.6.1-.6c.5-4.6.9-9.1.4-13.7h.7c5.1.5 11.8.6 14.7 5.7z"></path><path d="m264.6 145.2c-.4-.8-1-1.5-1.8-1.9-1.3-.6-3.7-.5-5.2-.7-.9-.1-1.8-.2-2.7-.4l1-.9v1.1c-1.7-.3-3.5-.7-5.2-1.2 0 0 .7-.6.7-.6-.6 4-.4 7.9-.1 11.9 0 0-.6-.8-.6-.8 2.8.3 5.5.6 8.3 1 1.6.2 3.8.6 4.8-.8 1.4-1.7 2-4.4.8-6.7zm.1-.1c1.4 2.6 1.7 6 0 8.5-1.6 1.8-4 1.6-6.1 1.4-2.8-.5-5.5-1-8.2-1.6 0 0-.7-.2-.7-.2s.1-.6.1-.6c.5-4.2.9-8.3.4-12.5 1.7.1 3.3.2 5 .4 0 0-1 .9-1 .9v-1c2.2.3 4.3.7 6.4 1.4 1.7.5 3.3 1.6 4.1 3.3z"></path><path d="m265 167.5c-1.3-2.6-4.2-3-6.8-3.1-2.7-.2-5.4-.8-8-1.5 0 0 .7-.6.7-.6-.6 4.4-.4 8.7-.1 13.1 0 0-.6-.8-.6-.8 2.9.3 5.9.7 8.8 1.1 1.6.2 3.6.3 4.9-.7 2-1.6 2.4-5.1 1.1-7.5zm.2-.1c1.7 3 2.2 8.3-1.6 10.1-2.5 1.1-5.3.4-7.8-.1-1.9-.4-3.9-.7-5.8-1.2 0 0-.7-.2-.7-.2s.1-.6.1-.6c.5-4.6.9-9.1.4-13.7h.7c5.1.5 11.8.6 14.7 5.7z"></path><path d="m264.6 145.2c-.4-.8-1-1.5-1.8-1.9-1.3-.6-3.7-.5-5.2-.7-.9-.1-1.8-.2-2.7-.4l1-.9v1.1c-1.7-.3-3.5-.7-5.2-1.2 0 0 .7-.6.7-.6-.6 4-.4 7.9-.1 11.9 0 0-.6-.8-.6-.8 2.8.3 5.5.6 8.3 1 1.6.2 3.8.6 4.8-.8 1.4-1.7 2-4.4.8-6.7zm.1-.1c1.4 2.6 1.7 6 0 8.5-1.6 1.8-4 1.6-6.1 1.4-2.8-.5-5.5-1-8.2-1.6 0 0-.7-.2-.7-.2s.1-.6.1-.6c.5-4.2.9-8.3.4-12.5 1.7.1 3.3.2 5 .4 0 0-1 .9-1 .9v-1c2.2.3 4.3.7 6.4 1.4 1.7.5 3.3 1.6 4.1 3.3z"></path><path d="m265 167.5c-1.3-2.6-4.2-3-6.8-3.1-2.7-.2-5.4-.8-8-1.5 0 0 .7-.6.7-.6-.6 4.4-.4 8.7-.1 13.1 0 0-.6-.8-.6-.8 2.9.3 5.9.7 8.8 1.1 1.6.2 3.6.3 4.9-.7 2-1.6 2.4-5.1 1.1-7.5zm.2-.1c1.7 3 2.2 8.3-1.6 10.1-2.5 1.1-5.3.4-7.8-.1-1.9-.4-3.9-.7-5.8-1.2 0 0-.7-.2-.7-.2s.1-.6.1-.6c.5-4.6.9-9.1.4-13.7h.7c5.1.5 11.8.6 14.7 5.7z"></path><path d="m264.6 145.2c-.4-.8-1-1.5-1.8-1.9-1.3-.6-3.7-.5-5.2-.7-.9-.1-1.8-.2-2.7-.4l1-.9v1.1c-1.7-.3-3.5-.7-5.2-1.2 0 0 .7-.6.7-.6-.6 4-.4 7.9-.1 11.9 0 0-.6-.8-.6-.8 2.8.3 5.5.6 8.3 1 1.6.2 3.8.6 4.8-.8 1.4-1.7 2-4.4.8-6.7zm.1-.1c1.4 2.6 1.7 6 0 8.5-1.6 1.8-4 1.6-6.1 1.4-2.8-.5-5.5-1-8.2-1.6 0 0-.7-.2-.7-.2s.1-.6.1-.6c.5-4.2.9-8.3.4-12.5 1.7.1 3.3.2 5 .4 0 0-1 .9-1 .9v-1c2.2.3 4.3.7 6.4 1.4 1.7.5 3.3 1.6 4.1 3.3z"></path><path d="m265 167.5c-1.3-2.6-4.2-3-6.8-3.1-2.7-.2-5.4-.8-8-1.5 0 0 .7-.6.7-.6-.6 4.4-.4 8.7-.1 13.1 0 0-.6-.8-.6-.8 2.9.3 5.9.7 8.8 1.1 1.6.2 3.6.3 4.9-.7 2-1.6 2.4-5.1 1.1-7.5zm.2-.1c1.7 3 2.2 8.3-1.6 10.1-2.5 1.1-5.3.4-7.8-.1-1.9-.4-3.9-.7-5.8-1.2 0 0-.7-.2-.7-.2s.1-.6.1-.6c.5-4.6.9-9.1.4-13.7h.7c5.1.5 11.8.6 14.7 5.7z"></path><path d="m264.6 145.2c-.4-.8-1-1.5-1.8-1.9-1.3-.6-3.7-.5-5.2-.7-.9-.1-1.8-.2-2.7-.4l1-.9v1.1c-1.7-.3-3.5-.7-5.2-1.2 0 0 .7-.6.7-.6-.6 4-.4 7.9-.1 11.9 0 0-.6-.8-.6-.8 2.8.3 5.5.6 8.3 1 1.6.2 3.8.6 4.8-.8 1.4-1.7 2-4.4.8-6.7zm.1-.1c1.4 2.6 1.7 6 0 8.5-1.6 1.8-4 1.6-6.1 1.4-2.8-.5-5.5-1-8.2-1.6 0 0-.7-.2-.7-.2s.1-.6.1-.6c.5-4.2.9-8.3.4-12.5 1.7.1 3.3.2 5 .4 0 0-1 .9-1 .9v-1c2.2.3 4.3.7 6.4 1.4 1.7.5 3.3 1.6 4.1 3.3z"></path><path d="m264.6 145.2c-.4-.8-1-1.5-1.8-1.9-1.3-.6-3.7-.5-5.2-.7-.9-.1-1.8-.2-2.7-.4l1-.9v1.1c-1.7-.3-3.5-.7-5.2-1.2 0 0 .7-.6.7-.6-.6 4-.4 7.9-.1 11.9 0 0-.6-.8-.6-.8 2.8.3 5.5.6 8.3 1 1.6.2 3.8.6 4.8-.8 1.4-1.7 2-4.4.8-6.7zm.1-.1c1.4 2.6 1.7 6 0 8.5-1.6 1.8-4 1.6-6.1 1.4-2.8-.5-5.5-1-8.2-1.6 0 0-.7-.2-.7-.2s.1-.6.1-.6c.5-4.2.9-8.3.4-12.5 1.7.1 3.3.2 5 .4 0 0-1 .9-1 .9v-1c2.2.3 4.3.7 6.4 1.4 1.7.5 3.3 1.6 4.1 3.3z"></path><path d="m265 167.5c-1.3-2.6-4.2-3-6.8-3.1-2.7-.2-5.4-.8-8-1.5 0 0 .7-.6.7-.6-.6 4.4-.4 8.7-.1 13.1 0 0-.6-.8-.6-.8 2.9.3 5.9.7 8.8 1.1 1.6.2 3.6.3 4.9-.7 2-1.6 2.4-5.1 1.1-7.5zm.2-.1c1.7 3 2.2 8.3-1.6 10.1-2.5 1.1-5.3.4-7.8-.1-1.9-.4-3.9-.7-5.8-1.2 0 0-.7-.2-.7-.2s.1-.6.1-.6c.5-4.6.9-9.1.4-13.7h.7c5.1.5 11.8.6 14.7 5.7z"></path><path d="m276.1 168.7c-.3-.8-.7-1.6-1.1-2.4-.5-.9-1.1-1.7-1.7-2.4-.4-.5-.8-.9-1.3-1.3-1.1-1-2.5-1.8-4-2.5 2-.4 3.7-1.2 5-2.2 2.3-1.9 3.4-4.7 3.5-8.5 0-1.9-.2-3.7-.7-5.3-.3-.9-.6-1.7-1-2.5-1.2-2.3-2.8-4.1-4.6-5.5-1.1-.8-2.5-1.5-4.3-2.1l.2-6.5-7.8-1.2-.1 6.2-4.4-.7.1-6.2-7.8-1.2-.1 6.2-5.6-.9-6.1-1 .2 9.7 5.6.9-.8 34.7-4.9-.8-1.4 9.9 6.1 1 5.6.9-.1 6.2 7.8 1.2.1-6.2 4.4.7-.1 6.2 6.7 1.1 1 .2.1-3.6.1-2.9h.9c.5 0 .9-.1 1.3-.1 1.8-.2 3.3-.7 4.6-1.4.6-.4 1.1-.8 1.6-1.2.1-.1.3-.3.4-.4l3.4-12.6.1-.2c-.2-1.4-.5-2.4-.9-3.3zm-25.3-28 4.2.7 2.9.5h.2c2.2.4 3.7.7 4.5 1.1s1.4 1.1 2 2.2.9 2.3.9 3.7c0 1.3-.4 2.6-1.2 3.8-.8 1.3-2.7 1.7-5.6 1.2l-1-.2-4.4-.7-2.7-.4zm14.1 34.5c-.2.3-.4.5-.7.8-1.2 1-3.2 1.2-6 .8l-1.1-.2-4.4-.7-2.7-.4.3-13.1 2.7.4 4.4.7 1.6.3c2.6.4 4.4 1.3 5.5 2.8.2.3.4.6.6.9.7 1.2 1 2.5 1 3.9-.1 1.5-.5 2.8-1.2 3.8z"></path><path d="m276 168.7c-1.5-4-4.6-7.3-8.7-8.7 0 0 .6-.1.6-.1 6.6-1.2 8.8-7 7.9-13.1-.8-5.5-4.8-10.6-10.2-12.1 0 0-.6-.2-.6-.2 0-2.4.1-4.8.2-7.2 0 0 .7.9.7.9s-7.7-1.3-7.7-1.3 1-.8 1-.8c0 2.1-.1 4.1-.2 6.2v.9c-.5-.1-4.7-.8-5.3-.9 0 0-.6-.1-.6-.1v-.6s.3-6.2.3-6.2l.5.6-7.7-1.4s.5-.4.5-.4-.2 6.2-.2 6.2 0 .4 0 .4-.4-.1-.4-.1-5.6-.9-5.6-.9.4-.3.4-.3v.4c-2.1-.4-4.3-.7-6.4-1 0 0 .4-.3.4-.3l.3 9.7s-.3-.4-.3-.4 5.6.8 5.6.8.4.1.4.1c0 8.9-.2 26.3-.3 35.1v1c-.7-.1-5.1-.8-5.9-.9 0 0 1.1-.8 1.1-.8l-1.8 9.8s-.8-1.1-.8-1.1c.6.1 6.6 1 6.9 1.1v.9s-.9-1-.9-1 5.6.9 5.6.9l.9.1v.9s-.2 6.2-.2 6.2-.9-1-.9-1l7.8 1.3-1.2 1c0-.9.2-6.6.2-7.4.7.1 4.7.8 5.6 1 0 0 .8.1.8.1s0 .8 0 .8l-.2 6.2-.7-.9c2.6.4 5.2.9 7.7 1.4 0 0-.8.7-.8.7s.3-6.5.3-6.5 0-.5 0-.5c1.7.1 3.5 0 5.2-.5 1.4-.3 3.3-1.6 3.9-2.2 1.3-4.3 2.5-8.5 3.6-12.8-.1-.9-.4-2.1-.8-3zm.2-.1c.4 1 .7 2 .8 3-1.1 4.3-2.3 8.6-3.3 13-2.2 2.6-5.8 3.5-9.1 3.6 0 0 .5-.5.5-.5v6.5.8c-3.1-.4-6.2-.8-9.3-1.3 0-.2.1-6.5.1-6.9 0 0 .8.9.8.9s-4.4-.7-4.4-.7 1.2-1 1.2-1c0 .6-.1 6.8-.2 7.4-.4-.1-8.2-1.3-8.9-1.4 0 0-.9-.1-.9-.1s0-.9 0-.9l.1-6.2s.9 1.1.9 1.1c-.6-.1-6.1-1-6.5-1v-.9s.9 1 .9 1-6-1-6-1-1-.2-1-.2l.1-1s1.5-9.9 1.5-9.9l.1-1s1 .2 1 .2l4.9.8s-1.1.9-1.1.9c.3-8.7.9-26.1 1.3-34.7 0 0 .4.5.4.5l-5.6-1s-.3-.1-.3-.1v-.3s-.2-9.7-.2-9.7v-.4c2.1.4 4.3.7 6.4 1 0 0-.4.3-.4.3v-.4s.4.1.4.1 5.6.9 5.6.9l-.4.3.1-6.2v-.5s.5.1.5.1l7.8 1.1.5.1v.5 6.2s-.6-.7-.6-.7 4.4.6 4.4.6-.9.7-.9.7c0-2.1 0-4.1.1-6.2v-1l.9.1c.3 0 8.4 1.3 8.5 1.3 0 2.4-.1 4.8-.2 7.3 0 0-.6-.9-.6-.9 6 1.7 10.4 7.5 10.9 13.7.4 4.4-.6 9.7-4.7 12.1-1.3.8-2.7 1.2-4.2 1.5v-.4c3.8 1.8 6.7 5 8.1 8.9z"></path><path d="m250.7 140.6c1.2 0 2.8 0 4.4.1 0 0-.8.6-.7.6 0 0-.1-.7-.1-.7s.8.1.8.1c2.9.4 5.8.2 8.4 1.8 2.8 2.6 2.9 7 1.2 10.2-1.1 2.2-4.1 2.2-6.2 2-3.1-.4-6.1-.7-9.1-1.3.2-4.2.7-8.7 1.3-12.8zm.2.2c.3 3.4.8 8.6.7 11.9 0 0-.9-1.1-.9-1.1 2.7.4 5.4 1 8.1 1.5 1.3.2 2.6.5 3.8.2 2.5-.7 3.1-4.4 2.2-6.5-.5-1.2-1.4-2.3-2.3-2.9-1-.5-2.5-.7-3.6-1-1.3-.3-2.7-.5-4-.9 0 0 .8-.6.7-.6 0 0-.1.8-.1.8-1.5-.4-2.8-.9-4.6-1.4z"></path><path d="m265 175.3c-3.1 3.9-10.9 1.8-15.1.8 0 0-.6-.2-.6-.2.7-4.5.6-9.1.3-13.6v-.8l.9.1c2 .2 4 .4 6.1.7 3.2.4 6.9.8 8.8 3.8 1.6 2.7 1.4 6.5-.4 9.2zm-.2-.2c1.7-2.5.9-5.9-1-8-1.1-1.4-2.9-2-4.7-2.3-3-.6-6-1.1-8.9-1.8 0 0 .8-.7.8-.7-.5 4.4-.8 8.7-.4 13.1 0 0-.5-.7-.5-.7 2.6.1 5.2.5 7.7 1.1 2.3.7 5.4 1.6 7-.7z"></path><path d="m341 202.4c-1.5 20.7-24.9 57.1-52.3 57.7-8.2.2-15.8-2-22.5-5.9-.9-.6-1.9-1.1-2.8-1.8-2.4-1.7-4.7-3.6-6.8-5.8-.4-.4-.8-.9-1.2-1.3l1.6-5.9v-.2l.4-1.5v-.1l5.9-21.7.1-.4v-.2l1-3.7 1.1-4.2.2-.6.3-1 .2-.6 2-7.4 3.2-11.7 3.6-13.3 1.1-4 4.2-15.6.2-.8.2-.8.2-.8.5-1.9c.6-.2 1.1-.3 1.7-.5.7-.2 1.5-.4 2.2-.5 2.8-.6 5.7-.9 8.6-1 5.9-.1 11.5.9 16.6 3 18.9 7.3 32 31.7 30.5 52.5z" fill="#fff"></path><path d="m341.1 202.4c-2 18.8-15 40-30.5 50.9-8.4 6-19 8.9-29.2 7-10.1-1.6-19.4-7.1-26.1-14.7l-.1-.1v-.2c2.2-8 4.3-16.1 6.4-24.2 5.5-21.6 13.2-51.1 19-72.6 0 0 .1-.6.1-.6s.6-.2.6-.2c7.7-2.4 16-2.8 23.8-.9 23.6 5.6 37.3 32.7 36 55.6zm-.2 0c1.3-22.4-13.7-48.3-36.3-53.6-7.5-1.8-15.4-1.4-22.7.9 0 0 .7-.7.7-.7-5.9 21.5-14.1 50.8-20.2 72.3-2.3 8-4.5 16.1-6.6 24.1 0 0-.1-.3-.1-.3 8.3 9.4 20.8 14.8 33.3 14.2 12.6-.6 23.5-8.4 31.9-17.3 9.9-10.8 18.4-24.7 20-39.6z"></path><path d="m310.7 149.7c-7-4.8-15.2-7.6-24.2-7.6-.4 0-.7 0-1.1 0-.2 0-.3 0-.5 0-.5 0-1.1 0-1.6.1l-1.8 6.6-.5 1.9c.5-.1 1.1-.1 1.6-.2.8-.1 1.6-.1 2.4-.1 11.1-.2 21.3 4.4 28.8 13 .2.2.3.4.5.5 7.5 8.3 11.1 18.7 10.8 34-.3 12.9-5.6 25.2-14 34.5s-19.3 14.5-30.6 14.8c-4.4.1-8.6-.6-12.6-2-3.4-1.2-6.6-2.8-9.5-4.9-.4-.3-.9-.7-1.3-1v.2l-1.6 5.9-.7 2.4c.4.3.9.6 1.3.9 2.3 1.5 4.8 2.8 7.4 3.8 1 .4 1.9.7 2.9 1 4.3 1.4 8.9 2 13.7 2 27.4-.5 50.8-26.4 52.3-57.7.9-20.6-7.8-38.5-21.7-48.1zm-32.6 41.2c-3.5-1.5-5.9-2.6-5.9-7.3 0-4.5 3.7-6.1 5.9-6.9zm15.2 24.8c-.8 2.2-2.4 3.9-4.9 4.8l-1.3.5v-16.3c2.2.8 4.6 1.7 5.6 3.9.9 1.7 1.5 4.5.6 7.1zm-25.4-16.6c.4.3.9.6 1.4.8 2.5 1.3 5.4 2.3 8.8 3v17.8c-3.1-1.7-6.5-3.7-6.6-10.9 0-.5-.4-.9-.8-.9h-3.9-1.6m-4.3 7.3c0-.2-.1-.4-.1-.5m19-60.4h1.6 5.1c.4 0 .8.4.8.9v8c10.6 2.9 16.3 9.9 16.4 20.5 0 .2-.1.5-.2.7s-.3.3-.6.3h-9.6c-.4 0-.8-.4-.8-.9-.1-4.4-2.7-6.2-5.2-7.8v15.5c9.3 1.6 17.8 5.3 17.8 20.2 0 12-6 19.1-17.8 21.1v7.5c0 .5-.4.9-.8.9h-7.5c-.4 0-.8-.4-.8-.9v-7.9c-7.2-1.6-12.2-5.1-15-10.5-.4-.7-.7-1.4-1-2.2m15.9-59.2v2.4c-.2.1-.5.1-.7.2" fill="#fff"></path><path d="m310.6 149.8c-7.9-5.5-17.7-8.2-27.3-7.3 0 0 .3-.2.3-.2s-2.2 8.6-2.2 8.6-.5-.6-.5-.6c12.4-1.9 25.4 3.1 33.5 12.6 3.2 3.4 7.1 9.4 8.8 14.7 4.2 13.6 3.4 28.9-2.9 41.7-8.4 17.9-27.8 31.8-48.2 27.6-5.6-1.1-11-3.6-15.5-7.1 0 0 1.2-.4 1.2-.4l-2.2 8.5-.3-.9c5.6 3.9 12.2 6.4 19 7.1 20.9 2.5 40.6-11.4 49.8-29.5 12.9-23.9 10-58.3-13.5-74.8zm.1-.2c30.1 21.2 28.6 69.2 2.3 92.9-12.8 12.3-32.6 17.7-49.4 10.9-3.5-1.3-6.8-3.2-9.8-5.4 0 0 .2-.5.2-.5.2-.8 2.6-9.3 2.7-9.6 4.5 3.8 9.9 6.6 15.7 7.9 16.9 3.8 33.9-5.6 43.1-19.6 6.4-9.3 9.5-20.6 8.9-31.7-.3-8.3-1.9-16.7-6.2-23.9-7.8-12.7-21.2-21.3-37.1-19.5 0 0-.7.1-.7.1s.2-.7.2-.7 2.4-8.5 2.4-8.5.1-.2.1-.2c9.7-.5 19.6 2.1 27.6 7.8z"></path><path d="m278.1 190.9c-7-.6-8.4-6.9-4.5-12 1.4-1.7 3.3-2.8 5.3-3.6.4 5 .1 10.9-.8 15.6zm-.1-.1c-.6-5.2-1.3-9.2-.8-14.2 0 0 1.2.8 1.2.8-4.9 1.2-6.7 3.7-5 8.6.6 2.3 3 3.3 4.6 4.8z"></path><path d="m293.4 215.8c-.9 2.8-3 5.3-5.9 6 0 0-1.2.4-1.2.4 0-1.8.1-3.6.4-5.3.6-4.1-.3-8.2-.4-12.2 0 0-.1-1.3-.1-1.3l1.3.4c6.6 1.5 7.9 6 5.9 12zm-.2-.1c.8-2.7-.3-5.8-2.1-7.8-1.2-1.1-2.7-1.7-4.3-2.4 0 0 1.3-.9 1.3-.9-.1 1.4-.1 2.7-.3 4.1-.7 4.1-.1 8.2.2 12.2 0 0-1.2-.8-1.2-.8 2.6-.8 5.6-1.5 6.4-4.4z"></path><path d="m268 199c3.5 1.5 7.3 2.4 11 3.2 0 3.2-.6 6.4-.6 9.6 0 3.4.5 6.9.6 10.3-6-2.4-8.7-5.9-8.3-12.4v-.1h-.3c-1.7-.1-3.4-.3-5.1-.6v-.2c1.8-.3 3.6-.5 5.4-.6 1.1-.1 1.7 1.1 1.7 1.9.3 4.4 2 7.9 6.1 10 0 0-1.3.8-1.3.8.1-3 .6-5.9.6-8.9s-.5-5.9-.6-8.9c0 0 .7.9.7.9-3.6-.8-7.3-2.1-10-4.6 0-.3.1-.4.1-.4z"></path><path d="m260.8 216.2c-.4 0-.5 0-.7 0-.1 0-.2 0-.1-.1.2-.1.9-.2.3-.2-1.2.1-.2-.2.6-.4 1-.1 1.3-.1.5.2-.6.2.1.1.3.1.1 0 .1 0 0 .1-.2.1-.6.3-.9.3z"></path><path d="m279.8 155.2s4-.2 4-.2 2-.1 2-.1c.4 0 .8-.1 1.2.1s.7.7.7 1.2c.1 2.7.1 5.3.2 8l-.5-.6c8.9 2 16 8.4 16.9 17.8 0 1.4.7 3.4-.3 4.6-.3.4-.9.5-1.4.5h-1.6s-6.3-.1-6.3-.1c-.5 0-1.2 0-1.7-.1-.9-.2-1.3-1-1.2-1.9.1-3.2-2.1-5.5-4.7-7.1 0 0 .6-.3.6-.3 0 2.6-.1 5.2-.1 7.7v7.7s-.3-.3-.3-.3c5 .9 10.3 2.3 13.9 6.2 5.2 5.9 5.5 15 3.7 22.3-2 8.1-9.5 13-17.5 14.2 0 0 .9-1 .9-1 0 .5 0 7.1-.1 7.5 0 1-.8 2-1.9 1.9h-.2-.4-3.2s-3.2 0-3.2 0c-1 .1-1.9-.6-2-1.6 0-.4 0-.6 0-.9v-.8s.1-6.4.1-6.4.6.7.6.7c-7.1-1.6-13.7-6.2-15.9-13.4 0 0 .2-.1.2-.1.4.8.8 1.6 1.2 2.4 3 5.4 8.9 8.6 14.9 9.7 0 0 .6.1.6.1s0 .6 0 .6c0 .9.1 7.2.2 8h-.1.4 3.2s3.2 0 3.2 0 .7 0 .7 0c-.2 0-.2.1-.2.1 0-1.4 0-7-.1-8.4 11.4-1.6 17.9-8.3 17.9-20 .4-11.9-5.3-18.2-16.9-20.1 0 0-.3-.1-.3-.1v-.3c.1-5.4.1-10.8-.1-16.2 3.2 1.7 6 4.2 6.2 8.1 0 .2 0 .6.2.6 2.1 0 7.3-.2 9.4-.2h.2c-.1-4.8-1.5-10.3-5.2-14-2.8-2.9-6.6-4.8-10.5-6 0 0-.5-.1-.5-.1v-.5c.1-2.7.1-5.3.2-8 0-.2-.1-.4-.2-.5s-.5-.1-.8-.1l-2-.1-4-.2v-.3z"></path><path d="m278.2 161.5c.6.2.7.4.8.6s-.5.4-.6.6.4.4.5.6.3.4.2.6c0 0-.5 1.1-.5 1.1-.5 0-.9-.4-1.2-.8-.1-.4.1-1 .4-1.3 0 0-.8 1-.8 1-.1-.2.1-.4.2-.6.2-.2.6-.4.5-.6s-.7-.4-.6-.6.6-.6 1.1-.6z"></path><path d="m298.3 86.9-6.8 24.8-3.1 11.5-2.3 8.7-.3 1.2-.2.5-.3 1.1-.1.5-.9 3.1-1 3.8-1.8 6.6-.5 2-.2.7-.2.8-.2.8-4.3 15.7-1 4-3.7 13.3-3.1 11.7-2 7.4-.2.7-.3 1-.1.6-1.2 4.3-1 3.6v.2l-.1.4-1.1 4.1-4.8 17.6v.2l-.4 1.4-.1.2-1.6 5.9-.6 2.4-6.9 25.3-1.1 4.1h1.6l.9-3.3 6.8-25.1.5-2.1 1.7-6.2.1-.2.4-1.4v-.2l5.1-18.6.4-1.8.8-2.8.2-.7.9-3.5 1.1-4.2.2-.6.3-1.1.2-.6 1.5-5.6 4-14.7 3.4-12.6v-.2l5.1-18.8.2-.7.2-.9.2-.7.7-2.3 1.6-6.1 1-3.8.3-1.1.2-.6.3-1.2.2-.6.3-1.1 2.4-8.9 3.5-13 6.7-24.9z"></path><path d="m298.3 87c-7.7 30.9-16.5 64.6-25 95.2-8.8 31.1-18 63.8-26 95 0 0-.5-.7-.5-.7h1.6s-.5.4-.5.4c4.1-15.9 8.3-31.8 12.5-47.7 8.1-30.7 17.3-64.3 25.9-95.1 4.5-15.5 8.8-32.4 13.6-47.2-.1.1-1.6.1-1.6.1zm-.1-.2h1.6s.2 0 .2 0c-4 16-8.1 31.9-12.3 47.9-12.4 47.5-25.6 95.9-38.9 143h-.4s-1.6 0-1.6 0-.7 0-.7 0 .2-.7.2-.7c9-31.5 17.3-63.5 25.4-95.2 8.2-30.7 17.6-64.6 26.5-95z"></path><path d="m238.2 86.5c.1 0 .2.1.3.1.8.1 1.3.8 1.3 1.6v5.2c0 1.5 1.9 2.2 2.9 1 5.9-7.2 12.7-13.6 21.1-18.9 1-.6 1-2.1 0-2.7-7.7-4.9-14.8-11.1-21.1-18.9-1-1.2-2.9-.5-2.9 1v5.3c0 .8-.6 1.4-1.3 1.6-20.8 4.1-37.6 19.1-44.1 38.9-.6 1.7 1.6 3 2.8 1.6 10-12 23.7-20.8 41-15.8z" fill="#fff"></path><path d="m238.2 86.5c.5.1 1.1.2 1.4.7.3.4.4 1 .4 1.5v3.1c.1.8-.2 2.3.5 2.8.8.7 1.9.4 2.5-.5 2.6-3.2 5.3-6.2 8.3-9.1 3.7-3.6 7.8-6.8 12.1-9.5.7-.3 1.2-1.2.6-1.9-.2-.3-.7-.5-1.1-.8-7.3-4.8-13.7-10.8-19.3-17.5-.3-.4-.7-.8-1-1.2-.7-.7-1.9-.5-2.3.4-.2.4-.1.9-.2 1.4v4.6c0 .9-.8 1.6-1.6 1.7 0 0-.7.2-.7.2-19.5 4.1-36 19.1-42.4 37.9 0 0-.3.7-.3.7-.1.2-.1.4-.1.5.1.9 1.4 1.4 1.9.6 10.1-12.6 25-20.7 41.3-15.6zm0 .1c-16.2-4.9-30.6 3.8-40.6 16.1-1.5 1.8-4.5.1-3.6-2.2 0 0 .3-.7.3-.7 6.3-18.6 22.7-33.3 41.9-37.6 0 0 1.5-.3 1.5-.3 1-.2 2-.4 2.1-1.5v-1.5s0-3.1 0-3.1c0-.4-.1-1.2.2-1.6.5-1.1 2.1-1.4 2.9-.5 1 1.2 2 2.3 3 3.5 5.3 5.8 11.5 10.9 18.1 15.2 1.2.6 1.5 2.3.6 3.3-1 .8-2.2 1.4-3.3 2.2-3.4 2.3-6.6 4.8-9.6 7.6-3 2.7-5.9 5.7-8.5 8.8-.6.9-1.9 1.3-2.8.5-.8-.6-.5-2.1-.6-3v-3.1c.1-1.1-.5-2.1-1.6-2.1z"></path><path d="m300.3 276.2c-.5 0-.9 0-1.4 0v-5.1c0-1.5-2-2.1-2.8-.8-4.2 6.5-9.6 12-16.4 16.2-1 .6-1 2.1.1 2.6 6.7 3.8 11.8 9.9 16.4 16.8.8 1.3 2.8.7 2.8-.8v-4.1c0-.7.5-1.3 1.2-1.5 17.4-3.9 31.3-18.6 36.5-37.6.4-1.6-1.6-2.6-2.6-1.4-8.7 9.7-20.6 15.7-33.8 15.7z" fill="#fff"></path><path d="m300.3 276.3h-1.4-.1v-.1-5.2c0-.9-.9-1.5-1.7-1.3-.8.1-1.1 1.1-1.7 1.8-1.9 2.9-4.1 5.7-6.5 8.2-2.6 2.7-5.6 5-8.7 7-.9.4-1.3 1.5-.3 2.1 4.9 2.8 8.9 6.9 12.2 11.3 1.1 1.4 2.1 2.8 3 4.3.4.5 1 1.7 1.5 2 .7.4 1.7.1 1.9-.7.2-.6.1-1.9.1-2.5v-1.3c-.1-.9 0-2 1-2.4 1.3-.4 2.5-.7 3.8-1.1 14.9-4.9 26.1-17.8 31.2-32.4.5-1.2.8-2.5 1.2-3.7.1-.4.3-.7.2-1-.1-.6-.8-1-1.4-.7-.3.1-.5.4-.8.7-1.5 1.6-3.1 3.2-4.7 4.6-7.8 6.6-18.3 10.4-28.8 10.4zm0-.1c12.2 0 23.8-5.9 32.1-14.7 0 0 .9-.9.9-.9.2-.2.3-.3.5-.5 1-1.1 3.1-.6 3.4 1 .1.5 0 1.1-.2 1.5-.4 1.2-.7 2.6-1.2 3.8-5.1 14.9-16.9 27.7-32.1 32.4-1.2.4-2.5.7-3.8 1-.4.1-.7.5-.8.8-.2.7 0 1.8-.1 2.5 0 .8.1 1.9-.1 2.7-.3.9-1.6 1.4-2.4.9-.7-.4-1.2-1.5-1.7-2.1-4-5.6-8.7-10.9-14.6-14.5 0 0-.6-.3-.6-.3l-.3-.2c-.6-.3-1-1-1-1.7 0-1.2 1-1.7 1.8-2.2 2.9-1.8 5.6-4 8.1-6.4 2.8-2.7 5.3-5.7 7.5-8.9.8-1.3 3-.8 3 .8v5.2s-.1-.1-.1-.1 1.7-.1 1.7-.1z"></path></svg> 