<?xml version="1.0" encoding="UTF-8" standalone="no" ?>
<!DOCTYPE svg PUBLIC "-//W3C//DTD SVG 1.1//EN" "http://www.w3.org/Graphics/SVG/1.1/DTD/svg11.dtd">
<svg xmlns="http://www.w3.org/2000/svg" xmlns:xlink="http://www.w3.org/1999/xlink" version="1.1" width="1080" height="1080" viewBox="0 0 1080 1080" xml:space="preserve">
<desc>Created with Fabric.js 5.2.4</desc>
<defs>
</defs>
<g transform="matrix(1 0 0 1 540 540)" id="bdf59390-c8ac-4b94-90da-6404429fb5d5"  >
<rect style="stroke: none; stroke-width: 1; stroke-dasharray: none; stroke-linecap: butt; stroke-dashoffset: 0; stroke-linejoin: miter; stroke-miterlimit: 4; fill: rgb(255,255,255); fill-rule: nonzero; opacity: 1; visibility: hidden;" vector-effect="non-scaling-stroke"  x="-540" y="-540" rx="0" ry="0" width="1080" height="1080" />
</g>
<g transform="matrix(1 0 0 1 540 540)" id="40d02f88-c850-465e-9ef5-24da44961d09"  >
</g>
<g transform="matrix(0 1.33 -1.33 0 556.81 508.62)" id="2a2abe78-646f-4f07-8494-969e00ca979c"  >
<path style="stroke: rgb(0,0,0); stroke-width: 0; stroke-dasharray: none; stroke-linecap: butt; stroke-dashoffset: 0; stroke-linejoin: miter; stroke-miterlimit: 4; fill: rgb(241,243,244); fill-rule: nonzero; opacity: 1;" vector-effect="non-scaling-stroke"  transform=" translate(-306, -306)" d="M 174.857 284.143 L 437.14300000000003 284.143 L 437.14300000000003 218.57199999999997 L 513.643 218.57199999999997 L 513.643 196.71499999999997 L 437.14300000000003 196.71499999999997 L 437.14300000000003 142.07199999999997 L 174.857 142.07199999999997 L 174.857 196.71499999999997 L 98.357 196.71499999999997 L 98.357 218.57199999999997 L 174.857 218.57199999999997 L 174.857 284.143 z M 196.714 163.929 L 415.28499999999997 163.929 L 415.28499999999997 262.286 L 196.714 262.286 L 196.714 163.929 z M 535.5 382.5 L 535.5 327.85699999999997 L 76.5 327.85699999999997 L 76.5 382.5 L 0 382.5 L 0 404.35699999999997 L 76.5 404.35699999999997 L 76.5 469.92699999999996 L 535.5 469.92699999999996 L 535.5 404.35699999999997 L 612 404.35699999999997 L 612 382.5 L 535.5 382.5 z M 513.643 448.071 L 98.357 448.071 L 98.357 349.71400000000006 L 513.643 349.71400000000006 L 513.643 448.071 z" stroke-linecap="round" />
</g>
<g transform="matrix(NaN NaN NaN NaN 0 0)"  >
<g style=""   >
</g>
</g>
<g transform="matrix(NaN NaN NaN NaN 0 0)"  >
<g style=""   >
</g>
</g>
</svg>