<svg width="71" height="70" viewBox="0 0 71 70" fill="none" xmlns="http://www.w3.org/2000/svg">
<rect x="0.5" width="70" height="70" rx="4" fill="#4A4A4F"/>
<path d="M7.5 41V16C7.5 15.4477 7.94772 15 8.5 15H35.5" stroke="white" stroke-linecap="round"/>
<path d="M63.8612 39.8457C64.0522 39.6462 64.0452 39.3297 63.8457 39.1388C63.6462 38.9478 63.3297 38.9548 63.1388 39.1543L63.8612 39.8457ZM50.304 53.2893L49.9427 52.9436L50.304 53.2893ZM48.9021 53.3317L49.2418 52.9649L48.9021 53.3317ZM63.1388 39.1543L49.9427 52.9436L50.6652 53.635L63.8612 39.8457L63.1388 39.1543ZM49.2418 52.9649L7.83969 14.6331L7.16031 15.3669L48.5624 53.6986L49.2418 52.9649ZM49.9427 52.9436C49.754 53.1408 49.4421 53.1503 49.2418 52.9649L48.5624 53.6986C49.1632 54.2549 50.0991 54.2266 50.6652 53.635L49.9427 52.9436Z" fill="white"/>
</svg>
