<svg width="40" height="40" viewBox="0 0 40 40" fill="none" xmlns="http://www.w3.org/2000/svg">
<g filter="url(#filter0_d_78_335)">
<path d="M32.0011 15.9992C32.0011 9.37225 26.6289 4 20.001 4C13.3734 4 8.00098 9.37225 8.00098 15.9992C8.00098 22.6262 13.3734 28 20.001 28C26.6291 28 32.0011 22.6262 32.0011 15.9992Z" fill="#395196"/>
<path d="M21.0585 13.1575V12.0208C21.0585 11.4672 21.428 11.3379 21.6867 11.3379C21.9462 11.3379 23.2821 11.3379 23.2821 11.3379V8.90374L21.0856 8.89404C18.6476 8.89404 18.094 10.7105 18.094 11.8734V13.1575H16.6846V16.0009H18.1062C18.1062 19.2228 18.1062 23.1077 18.1062 23.1077H20.9487C20.9487 23.1077 20.9487 19.1832 20.9487 16.0009H23.0585L23.318 13.1575H21.0585Z" fill="white"/>
</g>
<defs>
<filter id="filter0_d_78_335" x="0.000976562" y="0" width="40" height="40" filterUnits="userSpaceOnUse" color-interpolation-filters="sRGB">
<feFlood flood-opacity="0" result="BackgroundImageFix"/>
<feColorMatrix in="SourceAlpha" type="matrix" values="0 0 0 0 0 0 0 0 0 0 0 0 0 0 0 0 0 0 127 0" result="hardAlpha"/>
<feOffset dy="4"/>
<feGaussianBlur stdDeviation="4"/>
<feColorMatrix type="matrix" values="0 0 0 0 0 0 0 0 0 0.0627451 0 0 0 0 0.160784 0 0 0 0.1 0"/>
<feBlend mode="normal" in2="BackgroundImageFix" result="effect1_dropShadow_78_335"/>
<feBlend mode="normal" in="SourceGraphic" in2="effect1_dropShadow_78_335" result="shape"/>
</filter>
</defs>
</svg>
