<svg width="40" height="40" viewBox="0 0 40 40" fill="none" xmlns="http://www.w3.org/2000/svg">
<g filter="url(#filter0_d_78_347)">
<path d="M31.9989 16C31.9989 9.37234 26.6263 4 19.9997 4C13.371 4 7.99902 9.37218 7.99902 16C7.99902 22.6268 13.3712 28 19.9997 28C26.6265 28 31.9989 22.6268 31.9989 16Z" fill="#3D83D9"/>
<path d="M17.063 13.0713H14.2852V21.0101H17.063V13.0713Z" fill="white"/>
<path d="M15.6742 9.10205C14.804 9.10205 14.1229 9.90166 14.3191 10.8024C14.4331 11.3256 14.8598 11.7462 15.3849 11.8516C16.2803 12.0314 17.063 11.3537 17.063 10.491C17.063 9.72519 16.4424 9.10205 15.6742 9.10205Z" fill="white"/>
<path d="M26.1928 15.5101C26.006 14.0138 25.2575 13.0713 23.2348 13.0713C21.7992 13.0713 21.2284 13.2952 20.8992 13.9219V13.0713H18.6504V21.0101H20.9647V16.8544C20.9647 15.817 21.1612 15.0335 22.4439 15.0335C23.7082 15.0335 23.8098 15.9978 23.8098 16.9218V21.0102H26.193C26.1928 21.0102 26.2369 15.8598 26.1928 15.5101Z" fill="white"/>
</g>
<defs>
<filter id="filter0_d_78_347" x="-0.000976562" y="0" width="40" height="40" filterUnits="userSpaceOnUse" color-interpolation-filters="sRGB">
<feFlood flood-opacity="0" result="BackgroundImageFix"/>
<feColorMatrix in="SourceAlpha" type="matrix" values="0 0 0 0 0 0 0 0 0 0 0 0 0 0 0 0 0 0 127 0" result="hardAlpha"/>
<feOffset dy="4"/>
<feGaussianBlur stdDeviation="4"/>
<feColorMatrix type="matrix" values="0 0 0 0 0 0 0 0 0 0.0627451 0 0 0 0 0.160784 0 0 0 0.1 0"/>
<feBlend mode="normal" in2="BackgroundImageFix" result="effect1_dropShadow_78_347"/>
<feBlend mode="normal" in="SourceGraphic" in2="effect1_dropShadow_78_347" result="shape"/>
</filter>
</defs>
</svg>
