<svg width="71" height="70" viewBox="0 0 71 70" fill="none" xmlns="http://www.w3.org/2000/svg">
<rect x="0.5" width="70" height="70" rx="4" fill="#4A4A4F"/>
<path d="M43.0173 24.2512L42.376 25.0615H43.4093H58.4689C58.479 25.0615 58.4847 25.063 58.4873 25.0638C58.4885 25.0642 58.4896 25.0646 58.4906 25.0651C58.4919 25.0658 58.4931 25.0665 58.4942 25.0673C58.4989 25.0706 58.5057 25.0779 58.5105 25.0899C58.5153 25.1019 58.5152 25.1114 58.5143 25.1161C58.5139 25.1182 58.5133 25.1199 58.5122 25.1218C58.5113 25.1235 58.5087 25.1278 58.502 25.1341L58.4997 25.1363L18.9675 62.857L18.9654 62.8591C18.9552 62.8688 18.9485 62.8723 18.9462 62.8733C18.9437 62.8745 18.942 62.8748 18.9403 62.875C18.9361 62.8754 18.9254 62.8746 18.912 62.8668C18.8986 62.859 18.8915 62.8494 18.8889 62.8437C18.8877 62.8412 18.887 62.8386 18.8866 62.8352C18.8863 62.832 18.886 62.8245 18.889 62.8117C18.8891 62.8113 18.8892 62.811 18.8893 62.8107L24.9999 38.3683L25.1552 37.7471H24.5148H12.5929C12.5792 37.7471 12.5725 37.7439 12.5687 37.7416C12.5635 37.7385 12.5575 37.7329 12.5527 37.7245C12.5478 37.716 12.546 37.7078 12.5459 37.7015C12.5458 37.6968 12.5466 37.6899 12.5528 37.6792L12.5539 37.6773L30.2659 7.08647L30.2659 7.0865L30.2694 7.08024C30.2709 7.07766 30.2743 7.07321 30.2817 7.06898C30.2894 7.06452 30.298 7.0625 30.3048 7.0625H56.5207C56.5365 7.0625 56.5429 7.06625 56.5461 7.06831C56.551 7.07154 56.5576 7.07797 56.5626 7.08847C56.5677 7.09898 56.5691 7.10921 56.5685 7.11702C56.568 7.12266 56.5663 7.13131 56.5568 7.14395C56.5565 7.14437 56.5562 7.1448 56.5558 7.14524L43.0173 24.2512Z" stroke="white"/>
</svg>
